<svg width="152" height="168" viewBox="0 0 152 168" fill="none" xmlns="http://www.w3.org/2000/svg">
<g filter="url(#filter0_d_348_5154)">
<path d="M75.9998 71.2081C80.6022 71.2081 84.3332 67.4772 84.3332 62.8748C84.3332 58.2724 80.6022 54.5415 75.9998 54.5415C71.3975 54.5415 67.6665 58.2724 67.6665 62.8748M42.6665 108.708V50.3748C42.6665 43.4713 48.2629 37.8748 55.1665 37.8748H96.8332C103.737 37.8748 109.333 43.4713 109.333 50.3748V96.2081M42.6665 108.708C42.6665 115.612 48.2629 121.208 55.1665 121.208H96.8332C103.737 121.208 109.333 115.612 109.333 108.708V96.2081M42.6665 108.708C42.6665 101.805 48.2629 96.2081 55.1665 96.2081H109.333" stroke="#28303F" stroke-width="3.75" stroke-linecap="round" stroke-linejoin="round" shape-rendering="crispEdges"/>
</g>
<g filter="url(#filter1_d_348_5154)">
<path d="M80.1668 83.7082C80.1668 86.0094 78.3014 87.8748 76.0002 87.8748C73.699 87.8748 71.8335 86.0094 71.8335 83.7082C71.8335 81.407 73.699 79.5415 76.0002 79.5415C78.3014 79.5415 80.1668 81.407 80.1668 83.7082Z" fill="#28303F"/>
</g>
<defs>
<filter id="filter0_d_348_5154" x="0.791504" y="-0.000183105" width="150.417" height="167.083" filterUnits="userSpaceOnUse" color-interpolation-filters="sRGB">
<feFlood flood-opacity="0" result="BackgroundImageFix"/>
<feColorMatrix in="SourceAlpha" type="matrix" values="0 0 0 0 0 0 0 0 0 0 0 0 0 0 0 0 0 0 127 0" result="hardAlpha"/>
<feOffset dy="4"/>
<feGaussianBlur stdDeviation="20"/>
<feComposite in2="hardAlpha" operator="out"/>
<feColorMatrix type="matrix" values="0 0 0 0 0.45 0 0 0 0 0.45 0 0 0 0 0.45 0 0 0 0.25 0"/>
<feBlend mode="normal" in2="BackgroundImageFix" result="effect1_dropShadow_348_5154"/>
<feBlend mode="normal" in="SourceGraphic" in2="effect1_dropShadow_348_5154" result="shape"/>
</filter>
<filter id="filter1_d_348_5154" x="31.8335" y="43.5415" width="88.3335" height="88.3333" filterUnits="userSpaceOnUse" color-interpolation-filters="sRGB">
<feFlood flood-opacity="0" result="BackgroundImageFix"/>
<feColorMatrix in="SourceAlpha" type="matrix" values="0 0 0 0 0 0 0 0 0 0 0 0 0 0 0 0 0 0 127 0" result="hardAlpha"/>
<feOffset dy="4"/>
<feGaussianBlur stdDeviation="20"/>
<feComposite in2="hardAlpha" operator="out"/>
<feColorMatrix type="matrix" values="0 0 0 0 0.45 0 0 0 0 0.45 0 0 0 0 0.45 0 0 0 0.25 0"/>
<feBlend mode="normal" in2="BackgroundImageFix" result="effect1_dropShadow_348_5154"/>
<feBlend mode="normal" in="SourceGraphic" in2="effect1_dropShadow_348_5154" result="shape"/>
</filter>
</defs>
</svg>
