<svg width="24" height="25" viewBox="0 0 24 25" fill="none" xmlns="http://www.w3.org/2000/svg">
<path d="M10 11.5H6C5.73478 11.5 5.48043 11.3946 5.29289 11.2071C5.10536 11.0196 5 10.7652 5 10.5V7.5C5 7.23478 5.10536 6.98043 5.29289 6.79289C5.48043 6.60536 5.73478 6.5 6 6.5H9C9.26522 6.5 9.51957 6.60536 9.70711 6.79289C9.89464 6.98043 10 7.23478 10 7.5V13.5C10 16.1667 8.66667 17.8333 6 18.5M19 11.5H15C14.7348 11.5 14.4804 11.3946 14.2929 11.2071C14.1054 11.0196 14 10.7652 14 10.5V7.5C14 7.23478 14.1054 6.98043 14.2929 6.79289C14.4804 6.60536 14.7348 6.5 15 6.5H18C18.2652 6.5 18.5196 6.60536 18.7071 6.79289C18.8946 6.98043 19 7.23478 19 7.5V13.5C19 16.1667 17.6667 17.8333 15 18.5" stroke="#003C3F" stroke-width="2" stroke-linecap="round" stroke-linejoin="round"/>
</svg>
