<svg width="54" height="54" viewBox="0 0 54 54" fill="none" xmlns="http://www.w3.org/2000/svg">
<path d="M40.3623 6.00017C38.9965 7.01232 38.1111 8.63608 38.1111 10.4666C38.1111 13.5349 35.6238 16.0222 32.5556 16.0222C29.4873 16.0222 27 18.5095 27 21.5777C27 24.646 29.4873 27.1333 32.5556 27.1333C35.6238 27.1333 38.1111 29.6206 38.1111 32.6889C38.1111 35.7571 40.5984 38.2444 43.6667 38.2444H49.4013M40.3623 6.00017C36.4972 3.55118 31.9142 2.1333 27 2.1333C14.1318 2.1333 3.53437 11.8557 2.15258 24.3555M40.3623 6.00017C47.3567 10.4319 52 18.2404 52 27.1333C52 40.9404 40.8071 52.1333 27 52.1333C21.0464 52.1333 15.5789 50.0522 11.2852 46.5777M11.2852 46.5777L18.6667 46.5777C21.7349 46.5777 24.2222 44.0904 24.2222 41.0222C24.2222 37.9539 21.7349 35.4666 18.6667 35.4666C15.5984 35.4666 13.1111 32.9793 13.1111 29.9111C13.1111 26.8428 10.6238 24.3555 7.55556 24.3555H2.15258M11.2852 46.5777C5.6213 41.9945 2 34.9868 2 27.1333C2 26.1944 2.05176 25.2676 2.15258 24.3555" stroke="#003C3F" stroke-width="3.75" stroke-linecap="round"/>
</svg>
