<svg width="60" height="60" viewBox="0 0 60 60" fill="none" xmlns="http://www.w3.org/2000/svg">
<path d="M43.3623 8.86687C41.9965 9.87901 41.1111 11.5028 41.1111 13.3333C41.1111 16.4016 38.6238 18.8889 35.5556 18.8889C32.4873 18.8889 30 21.3762 30 24.4444C30 27.5127 32.4873 30 35.5556 30C38.6238 30 41.1111 32.4873 41.1111 35.5556C41.1111 38.6238 43.5984 41.1111 46.6667 41.1111H52.4013M43.3623 8.86687C39.4972 6.41788 34.9142 5 30 5C17.1318 5 6.53437 14.7224 5.15258 27.2222M43.3623 8.86687C50.3567 13.2986 55 21.1071 55 30C55 43.8071 43.8071 55 30 55C24.0464 55 18.5789 52.9189 14.2852 49.4444M14.2852 49.4444L21.6667 49.4444C24.7349 49.4444 27.2222 46.9571 27.2222 43.8889C27.2222 40.8206 24.7349 38.3333 21.6667 38.3333C18.5984 38.3333 16.1111 35.846 16.1111 32.7778C16.1111 29.7095 13.6238 27.2222 10.5556 27.2222H5.15258M14.2852 49.4444C8.6213 44.8612 5 37.8535 5 30C5 29.0611 5.05176 28.1343 5.15258 27.2222" stroke="white" stroke-width="3.75" stroke-linecap="round"/>
</svg>