<svg width="60" height="61" viewBox="0 0 60 61" fill="none" xmlns="http://www.w3.org/2000/svg">
<path d="M55 37.6332V15.1332C55 10.991 51.6421 7.63318 47.5 7.63318H27.5C23.3579 7.63318 20 10.991 20 15.1332V45.1332M55 37.6332H27.5C23.3579 37.6332 20 40.991 20 45.1332M55 37.6332V45.1332C55 49.2753 51.6421 52.6332 47.5 52.6332H27.5C23.3579 52.6332 20 49.2753 20 45.1332M30 17.6332H45M30 27.6332H37.5M5 17.6332H12.5M8.75 52.6332L10.5 50.2998C11.7982 48.5689 12.5 46.4635 12.5 44.2998V11.3832C12.5 9.31211 10.8211 7.63318 8.75 7.63318C6.67893 7.63318 5 9.31211 5 11.3832V44.2998C5 46.4635 5.70178 48.5689 7 50.2998L8.75 52.6332Z" stroke="#FFFFFF" stroke-width="3.75" stroke-linecap="round" stroke-linejoin="round"/>
</svg>