<svg width="54" height="40" viewBox="0 0 54 40" fill="none" xmlns="http://www.w3.org/2000/svg">
<ellipse cx="27" cy="31.3832" rx="15" ry="6.25" stroke="#FFFFFF" stroke-width="3.75" stroke-linejoin="round"/>
<circle cx="27" cy="10.1332" r="7.5" stroke="#FFFFFF" stroke-width="3.75" stroke-linejoin="round"/>
<path d="M13.1152 23.2869C10.8371 24.5232 9.07835 26.0599 8.04395 27.7849C7.4295 27.9493 6.86465 28.1357 6.35742 28.3386C5.3572 28.7387 4.67342 29.1685 4.27051 29.5496C3.87177 29.9267 3.875 30.1249 3.875 30.1335C3.87497 30.1463 3.87609 30.3445 4.27051 30.7175C4.67346 31.0985 5.35728 31.5284 6.35742 32.0165C6.57763 32.0165 6.8095 32.0991 7.05078 32.1804C7.24716 33.7578 8.02167 35.2445 9.25586 36.5759C7.66829 36.3033 6.21445 35.9097 4.96484 35.4099C3.70328 34.9053 2.55643 34.2573 1.69434 33.4421C0.82831 32.6231 0.125125 31.5054 0.125 30.1335C0.125 28.7616 0.828317 27.644 1.69434 26.825C2.55643 26.0097 3.70324 25.3618 4.96484 24.8572C7.17324 23.9738 10.0182 23.4156 13.1152 23.2869Z" fill="#FFFFFF"/>
<path d="M40.8843 23.2869C43.9817 23.4155 46.827 23.9737 49.0356 24.8572C50.2973 25.3618 51.444 26.0097 52.3062 26.825C53.1722 27.644 53.8755 28.7616 53.8755 30.1335C53.8754 31.5054 53.1722 32.6231 52.3062 33.4421C51.4441 34.2573 50.2972 34.9053 49.0356 35.4099C47.786 35.9097 46.3322 36.3033 44.7446 36.5759C45.9788 35.2445 46.7523 33.7578 46.9487 32.1804C47.1903 32.099 47.4226 32.0167 47.6431 31.9285C48.6432 31.5284 49.327 31.0985 49.73 30.7175C50.1244 30.3445 50.1255 30.1463 50.1255 30.1335C50.1255 30.1249 50.1288 29.9268 49.73 29.5496C49.3271 29.1685 48.6433 28.7387 47.6431 28.3386C47.1356 28.1356 46.5704 27.9493 45.9556 27.7849C44.921 26.0599 43.1626 24.5232 40.8843 23.2869Z" fill="#FFFFFF"/>
<path d="M39.5 5.75818C43.297 5.75818 46.375 8.83622 46.375 12.6332C46.375 16.4301 43.297 19.5082 39.5 19.5082C38.2858 19.5082 37.1463 19.1914 36.1562 18.639C37.0143 17.7157 37.7347 16.6635 38.2842 15.5131C38.6579 15.671 39.0688 15.7582 39.5 15.7582C41.2259 15.7582 42.625 14.3591 42.625 12.6332C42.625 10.9073 41.2259 9.50818 39.5 9.50818C39.4945 9.50818 39.4889 9.50815 39.4834 9.50818C39.4195 8.2108 39.1575 6.96595 38.7275 5.80212C38.9812 5.77376 39.2388 5.75818 39.5 5.75818Z" fill="#FFFFFF"/>
<path d="M14.5 5.75818C14.7609 5.75818 15.0182 5.77383 15.2715 5.80212C14.8416 6.96588 14.5795 8.2109 14.5156 9.50818C14.5104 9.50815 14.5052 9.50818 14.5 9.50818C12.7741 9.50818 11.375 10.9073 11.375 12.6332C11.375 14.3591 12.7741 15.7582 14.5 15.7582C14.9309 15.7582 15.3414 15.6708 15.7148 15.5131C16.2643 16.6636 16.9856 17.7156 17.8438 18.639C16.8537 19.1914 15.7142 19.5082 14.5 19.5082C10.703 19.5082 7.625 16.4301 7.625 12.6332C7.625 8.83622 10.703 5.75818 14.5 5.75818Z" fill="#FFFFFF"/>
</svg>