<svg width="60" height="60" viewBox="0 0 60 60" fill="none" xmlns="http://www.w3.org/2000/svg">
<path d="M30 47.5V55M30 55H22.5M30 55H37.5M35 20C35 17.2386 32.7614 15 30 15C27.2386 15 25 17.2386 25 20C25 22.7614 27.2386 25 30 25C32.7614 25 35 22.7614 35 20ZM15 47.5H45C50.5228 47.5 55 43.0228 55 37.5V15C55 9.47715 50.5228 5 45 5H15C9.47715 5 5 9.47715 5 15V37.5C5 43.0228 9.47715 47.5 15 47.5ZM23.75 37.5H36.25C38.3211 37.5 40 35.8211 40 33.75C40 31.6789 38.3211 30 36.25 30H23.75C21.6789 30 20 31.6789 20 33.75C20 35.8211 21.6789 37.5 23.75 37.5Z" stroke="white" stroke-width="3.75" stroke-linecap="round"/>
</svg>
