<svg width="54" height="54" viewBox="0 0 54 54" fill="none" xmlns="http://www.w3.org/2000/svg">
<path d="M27 44.6333V52.1333M27 52.1333H19.5M27 52.1333H34.5M32 17.1333C32 14.3719 29.7614 12.1333 27 12.1333C24.2386 12.1333 22 14.3719 22 17.1333C22 19.8947 24.2386 22.1333 27 22.1333C29.7614 22.1333 32 19.8947 32 17.1333ZM12 44.6333H42C47.5228 44.6333 52 40.1561 52 34.6333V12.1333C52 6.61045 47.5228 2.1333 42 2.1333H12C6.47715 2.1333 2 6.61045 2 12.1333V34.6333C2 40.1561 6.47715 44.6333 12 44.6333ZM20.75 34.6333H33.25C35.3211 34.6333 37 32.9544 37 30.8833C37 28.8122 35.3211 27.1333 33.25 27.1333H20.75C18.6789 27.1333 17 28.8122 17 30.8833C17 32.9544 18.6789 34.6333 20.75 34.6333Z" stroke="#003C3F" stroke-width="3.75" stroke-linecap="round"/>
</svg>
