<svg width="426" height="155" viewBox="0 0 426 155" fill="none" xmlns="http://www.w3.org/2000/svg">
<g opacity="0.05">
<path d="M104.098 55.0779V31.2737C96.7611 36.4269 92.2972 39.6615 84.6423 45.1932C73.5384 54.4671 63.587 56.5748 50.8059 55.5252C48.6299 55.3446 46.4366 55.0177 44.1746 54.0972C61.11 41.4423 78.0367 28.7875 96.4515 15.0315H68.8337V0.389414H121.936V55.0779H104.098Z" fill="#245D52"/>
<path d="M0 92.4966V0.389343H37.6548C37.6548 2.14171 37.6548 3.83365 37.6548 5.5256C37.6548 21.3314 37.7066 37.1459 37.603 52.9518C37.5944 54.2639 36.8953 55.8954 35.9719 56.8277C24.5192 68.3864 12.9716 79.8416 1.44129 91.3226C1.14785 91.6161 0.802635 91.8492 0.00863049 92.488L0 92.4966Z" fill="#0D2A22"/>
<path d="M14.1096 125.11C22.9126 116.297 26.1836 110.504 35.0212 101.656C39.6644 105.239 49.4255 108.614 55.5273 109.097C69.9229 110.245 88.349 95.7775 88.7374 81.3529C88.8409 77.3993 88.8927 72.7551 88.8927 68.5856H121.628C124.468 97.0292 112.644 124.135 84.6206 137.282C59.7907 148.936 30.9304 142.246 14.1182 125.119L14.1096 125.11Z" fill="#0D2A22"/>
<path d="M175.848 154.133C168.882 154.133 162.908 153.174 157.926 151.255C152.979 149.37 149.041 146.794 146.113 143.529C143.185 140.264 141.283 136.594 140.408 132.521L160.299 129.845C160.905 131.393 161.864 132.841 163.177 134.187C164.489 135.534 166.223 136.611 168.377 137.419C170.564 138.261 173.223 138.681 176.353 138.681C181.032 138.681 184.885 137.537 187.914 135.248C190.977 132.992 192.508 129.205 192.508 123.886V109.697H191.6C190.657 111.851 189.244 113.888 187.359 115.807C185.474 117.726 183.051 119.291 180.089 120.503C177.127 121.715 173.594 122.321 169.487 122.321C163.665 122.321 158.364 120.974 153.585 118.281C148.839 115.554 145.053 111.397 142.226 105.809C139.432 100.187 138.035 93.0837 138.035 84.4994C138.035 75.7132 139.466 68.3744 142.327 62.4833C145.187 56.5921 148.991 52.1821 153.736 49.2534C158.515 46.3246 163.749 44.8602 169.437 44.8602C173.779 44.8602 177.414 45.6008 180.342 47.082C183.27 48.5296 185.626 50.3474 187.41 52.5356C189.227 54.6901 190.624 56.8109 191.6 58.8981H192.408V45.8701H213.763V124.189C213.763 130.787 212.147 136.308 208.916 140.752C205.685 145.195 201.209 148.528 195.487 150.75C189.799 153.005 183.253 154.133 175.848 154.133ZM176.303 106.162C179.769 106.162 182.698 105.304 185.087 103.587C187.51 101.836 189.362 99.3452 190.641 96.1135C191.953 92.8481 192.609 88.9431 192.609 84.3985C192.609 79.8538 191.97 75.9151 190.691 72.5824C189.412 69.216 187.561 66.6071 185.138 64.7556C182.714 62.9041 179.769 61.9783 176.303 61.9783C172.769 61.9783 169.79 62.9377 167.367 64.8566C164.944 66.7417 163.109 69.3675 161.864 72.7339C160.619 76.1003 159.996 79.9885 159.996 84.3985C159.996 88.8757 160.619 92.7471 161.864 96.0125C163.143 99.2442 164.977 101.752 167.367 103.536C169.79 105.287 172.769 106.162 176.303 106.162Z" fill="#0D2A22"/>
<path d="M225.546 123.432V45.8701H246.396V59.403H247.204C248.617 54.5891 250.99 50.9534 254.322 48.4959C257.654 46.0048 261.491 44.7592 265.833 44.7592C266.91 44.7592 268.071 44.8266 269.316 44.9612C270.561 45.0959 271.655 45.281 272.598 45.5167V64.6041C271.588 64.3011 270.191 64.0318 268.408 63.7962C266.624 63.5605 264.991 63.4427 263.51 63.4427C260.347 63.4427 257.52 64.1328 255.029 65.513C252.572 66.8596 250.62 68.7447 249.173 71.1685C247.759 73.5923 247.052 76.3864 247.052 79.5508V123.432H225.546Z" fill="#0D2A22"/>
<path d="M298.277 124.896C293.329 124.896 288.92 124.038 285.05 122.321C281.179 120.57 278.117 117.995 275.862 114.595C273.64 111.161 272.53 106.886 272.53 101.769C272.53 97.46 273.32 93.8412 274.902 90.9124C276.484 87.9837 278.638 85.6272 281.364 83.843C284.091 82.0588 287.187 80.7123 290.654 79.8033C294.154 78.8944 297.822 78.2548 301.659 77.8845C306.169 77.4132 309.804 76.9756 312.564 76.5716C315.324 76.134 317.326 75.4944 318.572 74.6528C319.817 73.8112 320.44 72.5656 320.44 70.9161V70.6131C320.44 67.415 319.43 64.9407 317.411 63.1902C315.425 61.4397 312.598 60.5644 308.929 60.5644C305.059 60.5644 301.979 61.4228 299.69 63.1397C297.402 64.8229 295.887 66.9437 295.147 69.5022L275.256 67.8863C276.265 63.1734 278.251 59.1 281.213 55.6663C284.175 52.1989 287.995 49.5395 292.673 47.688C297.385 45.8028 302.837 44.8602 309.03 44.8602C313.338 44.8602 317.461 45.3652 321.399 46.3751C325.37 47.385 328.887 48.9504 331.95 51.0712C335.047 53.192 337.487 55.9188 339.271 59.2515C341.054 62.5506 341.946 66.5061 341.946 71.118V123.432H321.55V112.676H320.945C319.699 115.1 318.033 117.238 315.947 119.089C313.86 120.907 311.352 122.338 308.424 123.381C305.496 124.391 302.114 124.896 298.277 124.896ZM304.436 110.05C307.6 110.05 310.393 109.428 312.816 108.182C315.24 106.903 317.141 105.186 318.521 103.031C319.901 100.877 320.591 98.4363 320.591 95.7095V87.4787C319.918 87.9163 318.992 88.3203 317.815 88.6906C316.67 89.0272 315.374 89.347 313.927 89.65C312.48 89.9193 311.033 90.1718 309.585 90.4075C308.138 90.6094 306.826 90.7946 305.648 90.9629C303.123 91.3332 300.919 91.9223 299.034 92.7303C297.149 93.5382 295.685 94.6323 294.642 96.0125C293.599 97.359 293.077 99.0422 293.077 101.062C293.077 103.991 294.137 106.229 296.257 107.778C298.411 109.293 301.138 110.05 304.436 110.05Z" fill="#0D2A22"/>
<path d="M381.875 124.694C375.985 124.694 370.65 123.179 365.871 120.149C361.125 117.086 357.356 112.592 354.562 106.667C351.803 100.709 350.423 93.4035 350.423 84.7519C350.423 75.8647 351.853 68.4754 354.714 62.5843C357.575 56.6594 361.378 52.2326 366.123 49.3039C370.903 46.3414 376.136 44.8602 381.824 44.8602C386.166 44.8602 389.784 45.6008 392.679 47.082C395.607 48.5296 397.963 50.3474 399.746 52.5356C401.564 54.6901 402.944 56.8109 403.886 58.8981H404.542V20.0163H425.999V123.432H404.795V111.01H403.886C402.876 113.164 401.446 115.302 399.595 117.423C397.777 119.51 395.405 121.244 392.477 122.624C389.582 124.004 386.048 124.694 381.875 124.694ZM388.69 107.576C392.157 107.576 395.085 106.633 397.475 104.748C399.898 102.829 401.749 100.153 403.028 96.7194C404.341 93.2857 404.997 89.2629 404.997 84.6509C404.997 80.039 404.357 76.033 403.078 72.6329C401.799 69.2329 399.948 66.6071 397.525 64.7556C395.102 62.9041 392.157 61.9783 388.69 61.9783C385.156 61.9783 382.178 62.9377 379.754 64.8566C377.331 66.7754 375.497 69.4349 374.252 72.8349C373.006 76.235 372.384 80.1736 372.384 84.6509C372.384 89.1619 373.006 93.1511 374.252 96.6184C375.53 100.052 377.365 102.745 379.754 104.698C382.178 106.617 385.156 107.576 388.69 107.576Z" fill="#0D2A22"/>
</g>
</svg>
