<svg width="133" height="49" viewBox="0 0 133 49" fill="none" xmlns="http://www.w3.org/2000/svg">
<path d="M32.5001 17.2075V9.77564C30.2096 11.3845 28.8159 12.3944 26.426 14.1214C22.9593 17.0168 19.8524 17.6748 15.862 17.3471C15.1826 17.2907 14.4979 17.1887 13.7916 16.9013C19.079 12.9504 24.3637 8.99942 30.1129 4.7047H21.4904V0.133323H38.0694V17.2075H32.5001Z" fill="white"/>
<path d="M0 28.8899V0.133301H11.7561C11.7561 0.680404 11.7561 1.20864 11.7561 1.73688C11.7561 6.67158 11.7723 11.609 11.74 16.5437C11.7373 16.9533 11.519 17.4627 11.2307 17.7538C7.65508 21.3625 4.04984 24.9389 0.449982 28.5234C0.358369 28.615 0.250589 28.6878 0.0026945 28.8872L0 28.8899Z" fill="white"/>
<path d="M4.40511 39.0721C7.1535 36.3204 8.17472 34.512 10.9339 31.7496C12.3835 32.868 15.431 33.9218 17.336 34.0727C21.8305 34.4312 27.5832 29.9142 27.7045 25.4107C27.7368 24.1764 27.753 22.7264 27.753 21.4247H37.9732C38.8597 30.305 35.1683 38.7676 26.4192 42.8722C18.6671 46.5106 9.6567 44.4219 4.40781 39.0748L4.40511 39.0721Z" fill="white"/>
<path d="M54.9012 48.1333C52.7261 48.1333 50.861 47.8338 49.3058 47.2347C47.7612 46.6461 46.5317 45.8421 45.6176 44.8226C44.7034 43.8031 44.1097 42.6575 43.8365 41.3858L50.0466 40.5502C50.2358 41.0337 50.5352 41.4856 50.945 41.9061C51.3548 42.3265 51.896 42.6628 52.5685 42.915C53.2515 43.1778 54.0816 43.3092 55.0589 43.3092C56.5195 43.3092 57.7226 42.9518 58.6683 42.2371C59.6245 41.5329 60.1026 40.3506 60.1026 38.69V34.2599H59.8189C59.5247 34.9326 59.0834 35.5685 58.4949 36.1675C57.9065 36.7666 57.1499 37.2553 56.2252 37.6337C55.3005 38.0121 54.1972 38.2012 52.9153 38.2012C51.0974 38.2012 49.4424 37.7808 47.9503 36.94C46.4687 36.0887 45.2866 34.7907 44.4039 33.046C43.5318 31.2908 43.0957 29.0732 43.0957 26.3931C43.0957 23.65 43.5423 21.3588 44.4354 19.5195C45.3286 17.6802 46.516 16.3034 47.9976 15.389C49.4897 14.4746 51.1237 14.0174 52.8995 14.0174C54.255 14.0174 55.3899 14.2487 56.304 14.7111C57.2182 15.163 57.9538 15.7306 58.5107 16.4138C59.0781 17.0864 59.5142 17.7485 59.8189 18.4002H60.0711V14.3327H66.7383V38.7845C66.7383 40.8445 66.2339 42.5682 65.2252 43.9555C64.2164 45.3429 62.8189 46.3834 61.0326 47.077C59.2567 47.7812 57.213 48.1333 54.9012 48.1333ZM55.0431 33.1564C56.1254 33.1564 57.0396 32.8884 57.7856 32.3524C58.5422 31.8058 59.1201 31.0281 59.5194 30.0191C59.9292 28.9996 60.1341 27.7804 60.1341 26.3616C60.1341 24.9427 59.9345 23.713 59.5352 22.6725C59.1359 21.6215 58.558 20.807 57.8014 20.2289C57.0448 19.6509 56.1254 19.3618 55.0431 19.3618C53.9398 19.3618 53.0098 19.6614 52.2533 20.2605C51.4967 20.849 50.924 21.6688 50.5352 22.7198C50.1464 23.7708 49.952 24.9848 49.952 26.3616C49.952 27.7594 50.1464 28.9681 50.5352 29.9876C50.9345 30.9965 51.5072 31.7796 52.2533 32.3366C53.0098 32.8831 53.9398 33.1564 55.0431 33.1564Z" fill="white"/>
<path d="M70.4171 38.5481V14.3327H76.9267V18.5578H77.1789C77.6202 17.0549 78.3611 15.9198 79.4013 15.1525C80.4416 14.3748 81.6395 13.9859 82.995 13.9859C83.3313 13.9859 83.6938 14.0069 84.0826 14.049C84.4714 14.091 84.8129 14.1488 85.1071 14.2224V20.1816C84.7919 20.087 84.3558 20.003 83.7989 19.9294C83.242 19.8558 82.7323 19.819 82.27 19.819C81.2822 19.819 80.3996 20.0345 79.622 20.4654C78.8549 20.8858 78.2455 21.4744 77.7936 22.2311C77.3523 22.9878 77.1316 23.8602 77.1316 24.8481V38.5481H70.4171Z" fill="white"/>
<path d="M93.1243 39.0053C91.5797 39.0053 90.2031 38.7373 88.9947 38.2012C87.7863 37.6547 86.8301 36.8507 86.1261 35.7892C85.4326 34.7171 85.0858 33.3823 85.0858 31.7848C85.0858 30.4395 85.3327 29.3097 85.8266 28.3953C86.3205 27.4809 86.993 26.7452 87.8441 26.1882C88.6952 25.6311 89.662 25.2107 90.7443 24.927C91.8371 24.6432 92.9825 24.4435 94.1803 24.3279C95.5884 24.1807 96.7232 24.0441 97.5849 23.918C98.4465 23.7813 99.0717 23.5817 99.4605 23.3189C99.8493 23.0562 100.044 22.6673 100.044 22.1523V22.0577C100.044 21.0592 99.7285 20.2867 99.098 19.7402C98.4781 19.1937 97.5954 18.9204 96.45 18.9204C95.2416 18.9204 94.2802 19.1884 93.5656 19.7244C92.8511 20.2499 92.3782 20.9121 92.1471 21.7109L85.9369 21.2064C86.2522 19.735 86.8721 18.4632 87.7968 17.3912C88.7215 16.3087 89.9142 15.4784 91.3748 14.9003C92.8458 14.3117 94.5481 14.0174 96.4816 14.0174C97.8266 14.0174 99.1138 14.1751 100.343 14.4904C101.583 14.8057 102.681 15.2944 103.637 15.9566C104.604 16.6187 105.366 17.47 105.923 18.5105C106.48 19.5405 106.758 20.7755 106.758 22.2153V38.5481H100.39V35.1901H100.201C99.8125 35.9468 99.2924 36.6142 98.6409 37.1923C97.9894 37.7598 97.2066 38.2065 96.2924 38.5323C95.3782 38.8476 94.3222 39.0053 93.1243 39.0053ZM95.0472 34.3703C96.035 34.3703 96.9071 34.1759 97.6637 33.787C98.4203 33.3876 99.0139 32.8516 99.4448 32.1789C99.8756 31.5063 100.091 30.7443 100.091 29.893V27.3233C99.8808 27.4599 99.5919 27.586 99.2241 27.7016C98.8668 27.8067 98.4623 27.9066 98.0105 28.0012C97.5586 28.0852 97.1068 28.1641 96.6549 28.2376C96.2031 28.3007 95.7933 28.3585 95.4255 28.4111C94.6374 28.5267 93.9492 28.7106 93.3607 28.9628C92.7723 29.2151 92.3152 29.5567 91.9895 29.9876C91.6637 30.408 91.5008 30.9335 91.5008 31.5641C91.5008 32.4785 91.8318 33.1774 92.4938 33.6609C93.1663 34.1338 94.0175 34.3703 95.0472 34.3703Z" fill="white"/>
<path d="M119.224 38.9422C117.385 38.9422 115.72 38.4692 114.228 37.5233C112.746 36.5669 111.569 35.1638 110.697 33.314C109.835 31.4537 109.405 29.173 109.405 26.4719C109.405 23.6973 109.851 21.3903 110.744 19.551C111.638 17.7012 112.825 16.3192 114.307 15.4048C115.799 14.4799 117.433 14.0174 119.208 14.0174C120.564 14.0174 121.694 14.2487 122.597 14.7111C123.511 15.163 124.247 15.7306 124.804 16.4138C125.371 17.0864 125.802 17.7485 126.096 18.4002H126.301V6.26098H133V38.5481H126.38V34.6698H126.096C125.781 35.3425 125.335 36.0099 124.757 36.672C124.189 37.3236 123.448 37.8649 122.534 38.2958C121.631 38.7267 120.527 38.9422 119.224 38.9422ZM121.352 33.5978C122.434 33.5978 123.349 33.3035 124.095 32.715C124.851 32.1159 125.429 31.2803 125.828 30.2083C126.238 29.1363 126.443 27.8803 126.443 26.4404C126.443 25.0005 126.243 23.7498 125.844 22.6883C125.445 21.6268 124.867 20.807 124.11 20.2289C123.354 19.6509 122.434 19.3618 121.352 19.3618C120.249 19.3618 119.319 19.6614 118.562 20.2605C117.806 20.8595 117.233 21.6898 116.844 22.7514C116.455 23.8129 116.261 25.0426 116.261 26.4404C116.261 27.8488 116.455 29.0942 116.844 30.1768C117.243 31.2488 117.816 32.0896 118.562 32.6992C119.319 33.2983 120.249 33.5978 121.352 33.5978Z" fill="white"/>
</svg>
