<svg width="20" height="20" viewBox="0 0 20 20" fill="none" xmlns="http://www.w3.org/2000/svg">
<path d="M4.16663 8.33334V13.3426C4.16663 13.6418 4.16663 13.7913 4.21217 13.9234C4.25245 14.0401 4.31818 14.1465 4.40461 14.2347C4.50235 14.3345 4.63613 14.4014 4.90367 14.5352L9.40367 16.7852C9.62231 16.8945 9.73163 16.9492 9.84629 16.9707C9.94785 16.9897 10.0521 16.9897 10.1536 16.9707C10.2683 16.9492 10.3776 16.8945 10.5962 16.7852L15.0962 14.5352C15.3638 14.4014 15.4976 14.3345 15.5953 14.2347C15.6817 14.1465 15.7475 14.0401 15.7877 13.9234C15.8333 13.7913 15.8333 13.6418 15.8333 13.3426V8.33334M1.66663 7.08334L9.70182 3.06574C9.81114 3.01108 9.86579 2.98375 9.92313 2.973C9.97391 2.96347 10.026 2.96347 10.0768 2.973C10.1341 2.98375 10.1888 3.01108 10.2981 3.06574L18.3333 7.08334L10.2981 11.1009C10.1888 11.1556 10.1341 11.1829 10.0768 11.1937C10.026 11.2032 9.97391 11.2032 9.92313 11.1937C9.86579 11.1829 9.81114 11.1556 9.70182 11.1009L1.66663 7.08334Z" stroke="#0A2628" stroke-width="1.66667" stroke-linecap="round" stroke-linejoin="round"/>
</svg>
