<svg width="1099" height="700" viewBox="0 0 1099 700" fill="none" xmlns="http://www.w3.org/2000/svg">
<path opacity="0.5" fill-rule="evenodd" clip-rule="evenodd" d="M-233.561 -170.958H-380.923V-23.5963H-248.828L-233.561 -38.8631V-170.958ZM-217.887 -23.5963L-232.957 -38.6662V-170.958H-85.5951V-23.5963H-217.887ZM-232.957 -8.14696L-218.111 -22.9923H-85.5951V124.369H-232.957V-8.14696ZM-248.603 -22.9923L-233.561 -7.95007V124.369H-380.923V-22.9923H-248.603ZM-381.44 -171.476V-23.5099V-23.0787V124.455V124.887V272.421V272.852V420.387V420.818V568.353V568.784V716.75H-233.474H-233.043H-85.5092H-85.0774H62.4566H62.8879H210.422H210.854H358.388H358.819H506.353H506.785H654.319H654.75H802.284H802.716H950.25H950.682H1098.65L1098.65 568.784V420.818V420.387V272.421V124.887V-23.0787V-23.5099V-171.476H950.682H950.251H802.716H802.284H654.75H654.319H506.785H506.353H358.819H358.388H210.854H210.422H62.8879H62.4566H-85.0774H-85.5092H-233.043H-233.474H-381.44ZM-84.9915 -170.958H62.3702V-23.5963H-84.9915V-170.958ZM210.336 -170.958H62.9743V-23.5963H210.336V-170.958ZM210.94 -170.958H358.302V-23.5963H210.94V-170.958ZM506.267 -170.958H358.905V-23.5963H506.267V-170.958ZM506.871 -170.958H654.233V-23.5963H506.871V-170.958ZM802.198 -170.958H654.837V-23.5963H802.198V-170.958ZM802.802 -170.958H950.164V-23.5963H802.802V-170.958ZM1098.13 -170.958H950.768V-23.5963H1098.13V-170.958ZM-84.9915 -22.9923H62.3702V124.369H-84.9915V-22.9923ZM210.336 -22.9923H62.9743V124.369H195.513L210.336 109.547V-22.9923ZM225.525 124.369L210.94 109.784V-22.9923H358.302V124.369H225.525ZM210.94 140.263L226.18 125.023L226.129 124.973H358.302V272.335H210.94V140.263ZM194.91 124.973L194.859 125.023L210.336 140.5V272.335H62.9743V124.973H194.91ZM506.267 -22.9923H358.905V124.369H506.267V-22.9923ZM506.871 -22.9923H654.233V124.369H506.871V-22.9923ZM802.198 -22.9923H654.837V124.369H802.198V-22.9923ZM802.802 -22.9923H950.164V83.4866L949.914 83.7366L909.281 124.369H802.802V-22.9923ZM908.677 124.973H802.803V257.817L803.297 257.322L818.31 272.335H950.164V166.561L949.914 166.31L909.027 125.423L908.627 125.023L908.677 124.973ZM950.164 165.761L909.427 125.023L909.477 124.973H934.704L934.654 125.023L950.164 140.534V165.761ZM950.768 166.256V272.335H1098.13V124.973H991.95L992 125.023L991.601 125.423L950.768 166.256ZM991.15 124.973L991.201 125.023L950.768 165.456V140.23L965.974 125.023L965.923 124.973H991.15ZM991.346 124.369H1098.13V-22.9923H950.768V83.7914L991.346 124.369ZM950.768 84.5912L990.547 124.369H965.32L950.768 109.818V84.5912ZM950.164 84.2862L910.081 124.369H935.308L950.164 109.513V84.2862ZM802.802 288.147L803.297 288.642L818.957 272.982L818.914 272.939H950.164V420.3H802.802V288.147ZM787.681 272.939L787.637 272.982L802.198 287.544V420.3H654.837V272.939H787.681ZM802.198 258.421L788.285 272.335H654.837V124.973H802.198V258.421ZM-380.923 124.973H-233.561V272.335H-380.923V124.973ZM-85.5951 124.973H-232.957V272.335H-85.5951V124.973ZM-84.9915 124.973H62.3702V272.335H-84.9915V124.973ZM506.268 124.973H358.906V272.335H506.268V124.973ZM506.871 124.973H654.233V272.335H506.871V124.973ZM-380.923 272.939H-233.561V420.3H-380.923V272.939ZM-85.5951 272.939H-232.957V420.3H-126.312L-126.504 420.109L-126.104 419.709L-85.5951 379.2V272.939ZM-85.5951 380L-125.704 420.109L-125.512 420.3H-100.285L-100.477 420.109L-85.5951 405.227V380ZM-84.9915 404.623V379.396L-84.8168 379.222L-43.9297 420.109L-44.1214 420.3H-69.3483L-69.1566 420.109L-84.8167 404.449L-84.9915 404.623ZM-84.9915 435.594L-84.8167 435.769L-69.9524 420.905H-44.7255L-84.8168 460.996L-84.9915 460.821V435.594ZM-99.6811 420.905L-85.5951 434.991V460.218L-124.908 420.905H-99.6811ZM-125.708 420.905H-232.957V568.266H-85.5951V461.017L-125.708 420.905ZM-84.9915 461.621V568.266H62.3702V420.905H-43.9258L-84.417 461.396L-84.8168 461.796L-84.9915 461.621ZM-43.3217 420.3H62.3702V272.939H-84.9915V378.597L-84.8168 378.422L-84.417 378.822L-43.5299 419.709L-43.1301 420.109L-43.3217 420.3ZM210.336 272.939H62.9743V420.3H210.336V272.939ZM210.94 272.939H358.302V420.3H210.94V272.939ZM506.267 272.939H358.905V420.3H506.267V272.939ZM506.871 272.939H654.233V420.3H506.871V272.939ZM1098.13 272.939H950.768V420.3H1098.13V272.939ZM-380.923 420.905H-233.561V568.266H-380.923V420.905ZM210.336 420.905H62.9743V568.266H210.336V420.905ZM210.94 420.905H358.302V568.266H210.94V420.905ZM506.267 420.905H358.905V568.266H506.267V420.905ZM506.871 420.905H654.233V568.266H506.871V420.905ZM802.198 420.905H654.837V568.266H802.198V420.905ZM802.802 420.905H950.164V568.266H802.802V420.905ZM1098.13 420.905H950.768V568.266H1098.13V420.905ZM-380.923 568.87H-233.561V716.232H-380.923V568.87ZM-85.5951 568.87H-232.957V716.232H-85.5951V568.87ZM-84.9915 568.87H62.3702V716.232H-84.9915V568.87ZM210.336 568.87H62.9743V716.232H210.336V568.87ZM210.94 568.87H358.302V716.232H210.94V568.87ZM506.267 568.87H358.905V716.232H506.267V568.87ZM506.871 568.87H654.233V716.232H506.871V568.87ZM802.198 568.87H654.837V716.232H802.198V568.87ZM802.802 568.87H950.164V716.232H802.802V568.87ZM1098.13 568.87H950.768V716.232H1098.13V568.87Z" fill="url(#paint0_linear_10_17)" fill-opacity="0.6"/>
<defs>
<linearGradient id="paint0_linear_10_17" x1="-815.069" y1="391.854" x2="948.126" y2="411.396" gradientUnits="userSpaceOnUse">
<stop/>
<stop offset="1" stop-opacity="0"/>
</linearGradient>
</defs>
</svg>
