<svg width="133" height="48" viewBox="0 0 133 48" fill="none" xmlns="http://www.w3.org/2000/svg">
<path d="M32.5001 17.0742V9.64234C30.2096 11.2512 28.8159 12.2611 26.426 13.9881C22.9593 16.8835 19.8524 17.5415 15.862 17.2138C15.1826 17.1574 14.4979 17.0554 13.7916 16.768C19.079 12.8171 24.3637 8.86612 30.1129 4.57139H21.4904V2.21011e-05H38.0694V17.0742H32.5001Z" fill="#245D52"/>
<path d="M0 28.7566V0H11.7561C11.7561 0.547103 11.7561 1.07534 11.7561 1.60358C11.7561 6.53828 11.7723 11.4757 11.74 16.4104C11.7373 16.82 11.519 17.3294 11.2307 17.6205C7.65508 21.2292 4.04984 24.8056 0.449982 28.3901C0.358369 28.4817 0.250589 28.5545 0.0026945 28.7539L0 28.7566Z" fill="#0D2A22"/>
<path d="M4.40511 38.9388C7.1535 36.1871 8.17472 34.3787 10.9339 31.6163C12.3835 32.7347 15.431 33.7885 17.336 33.9394C21.8305 34.2979 27.5832 29.7809 27.7045 25.2774C27.7368 24.0431 27.753 22.5931 27.753 21.2914H37.9732C38.8597 30.1717 35.1683 38.6343 26.4192 42.7389C18.6671 46.3773 9.6567 44.2886 4.40781 38.9415L4.40511 38.9388Z" fill="#0D2A22"/>
<path d="M54.9012 48C52.7261 48 50.861 47.7005 49.3058 47.1014C47.7612 46.5128 46.5317 45.7088 45.6176 44.6893C44.7034 43.6698 44.1097 42.5242 43.8365 41.2525L50.0466 40.4169C50.2358 40.9004 50.5352 41.3523 50.945 41.7728C51.3548 42.1932 51.896 42.5295 52.5685 42.7817C53.2515 43.0445 54.0816 43.1759 55.0589 43.1759C56.5195 43.1759 57.7226 42.8185 58.6683 42.1038C59.6245 41.3996 60.1026 40.2173 60.1026 38.5567V34.1266H59.8189C59.5247 34.7993 59.0834 35.4352 58.4949 36.0342C57.9065 36.6333 57.1499 37.122 56.2252 37.5004C55.3005 37.8787 54.1972 38.0679 52.9153 38.0679C51.0974 38.0679 49.4424 37.6475 47.9503 36.8067C46.4687 35.9554 45.2866 34.6574 44.4039 32.9127C43.5318 31.1575 43.0957 28.9399 43.0957 26.2598C43.0957 23.5167 43.5423 21.2255 44.4354 19.3862C45.3286 17.5469 46.516 16.1701 47.9976 15.2557C49.4897 14.3413 51.1237 13.8841 52.8995 13.8841C54.255 13.8841 55.3899 14.1154 56.304 14.5778C57.2182 15.0297 57.9538 15.5973 58.5107 16.2805C59.0781 16.9531 59.5142 17.6152 59.8189 18.2669H60.0711V14.1994H66.7383V38.6512C66.7383 40.7112 66.2339 42.4349 65.2252 43.8222C64.2164 45.2096 62.8189 46.2501 61.0326 46.9437C59.2567 47.6479 57.213 48 54.9012 48ZM55.0431 33.0231C56.1254 33.0231 57.0396 32.7551 57.7856 32.2191C58.5422 31.6725 59.1201 30.8948 59.5194 29.8858C59.9292 28.8663 60.1341 27.6471 60.1341 26.2283C60.1341 24.8094 59.9345 23.5797 59.5352 22.5392C59.1359 21.4882 58.558 20.6737 57.8014 20.0956C57.0448 19.5176 56.1254 19.2285 55.0431 19.2285C53.9398 19.2285 53.0098 19.5281 52.2533 20.1272C51.4967 20.7157 50.924 21.5355 50.5352 22.5865C50.1464 23.6375 49.952 24.8515 49.952 26.2283C49.952 27.6261 50.1464 28.8348 50.5352 29.8543C50.9345 30.8632 51.5072 31.6462 52.2533 32.2033C53.0098 32.7498 53.9398 33.0231 55.0431 33.0231Z" fill="#0D2A22"/>
<path d="M70.4171 38.4148V14.1994H76.9267V18.4245H77.1789C77.6202 16.9216 78.3611 15.7865 79.4013 15.0192C80.4416 14.2415 81.6395 13.8526 82.995 13.8526C83.3313 13.8526 83.6938 13.8736 84.0826 13.9157C84.4714 13.9577 84.8129 14.0155 85.1071 14.0891V20.0483C84.7919 19.9537 84.3558 19.8697 83.7989 19.7961C83.242 19.7225 82.7323 19.6857 82.27 19.6857C81.2822 19.6857 80.3996 19.9012 79.622 20.3321C78.8549 20.7525 78.2455 21.3411 77.7936 22.0978C77.3523 22.8545 77.1316 23.7269 77.1316 24.7148V38.4148H70.4171Z" fill="#0D2A22"/>
<path d="M93.1243 38.872C91.5797 38.872 90.2031 38.604 88.9947 38.0679C87.7863 37.5214 86.8301 36.7174 86.1261 35.6559C85.4326 34.5838 85.0858 33.249 85.0858 31.6515C85.0858 30.3062 85.3327 29.1764 85.8266 28.262C86.3205 27.3476 86.993 26.6119 87.8441 26.0549C88.6952 25.4978 89.662 25.0774 90.7443 24.7937C91.8371 24.5099 92.9825 24.3102 94.1803 24.1946C95.5884 24.0474 96.7232 23.9108 97.5849 23.7847C98.4465 23.648 99.0717 23.4484 99.4605 23.1856C99.8493 22.9228 100.044 22.534 100.044 22.019V21.9244C100.044 20.9259 99.7285 20.1534 99.098 19.6069C98.4781 19.0604 97.5954 18.7871 96.45 18.7871C95.2416 18.7871 94.2802 19.0551 93.5656 19.5911C92.8511 20.1166 92.3782 20.7788 92.1471 21.5776L85.9369 21.0731C86.2522 19.6017 86.8721 18.3299 87.7968 17.2579C88.7215 16.1754 89.9142 15.345 91.3748 14.767C92.8458 14.1784 94.5481 13.8841 96.4816 13.8841C97.8266 13.8841 99.1138 14.0418 100.343 14.3571C101.583 14.6724 102.681 15.1611 103.637 15.8233C104.604 16.4854 105.366 17.3367 105.923 18.3772C106.48 19.4072 106.758 20.6422 106.758 22.082V38.4148H100.39V35.0568H100.201C99.8125 35.8135 99.2924 36.4809 98.6409 37.059C97.9894 37.6265 97.2066 38.0732 96.2924 38.399C95.3782 38.7143 94.3222 38.872 93.1243 38.872ZM95.0472 34.237C96.035 34.237 96.9071 34.0426 97.6637 33.6537C98.4203 33.2543 99.0139 32.7183 99.4448 32.0456C99.8756 31.373 100.091 30.611 100.091 29.7597V27.19C99.8808 27.3266 99.5919 27.4527 99.2241 27.5683C98.8668 27.6734 98.4623 27.7733 98.0105 27.8679C97.5586 27.9519 97.1068 28.0308 96.6549 28.1043C96.2031 28.1674 95.7933 28.2252 95.4255 28.2778C94.6374 28.3934 93.9492 28.5773 93.3607 28.8295C92.7723 29.0818 92.3152 29.4234 91.9895 29.8543C91.6637 30.2747 91.5008 30.8002 91.5008 31.4308C91.5008 32.3452 91.8318 33.0441 92.4938 33.5276C93.1663 34.0005 94.0175 34.237 95.0472 34.237Z" fill="#0D2A22"/>
<path d="M119.224 38.8089C117.385 38.8089 115.72 38.3359 114.228 37.39C112.746 36.4336 111.569 35.0305 110.697 33.1807C109.835 31.3204 109.405 29.0397 109.405 26.3386C109.405 23.564 109.851 21.257 110.744 19.4177C111.638 17.5679 112.825 16.1859 114.307 15.2715C115.799 14.3466 117.433 13.8841 119.208 13.8841C120.564 13.8841 121.694 14.1154 122.597 14.5778C123.511 15.0297 124.247 15.5973 124.804 16.2805C125.371 16.9531 125.802 17.6152 126.096 18.2669H126.301V6.12767H133V38.4148H126.38V34.5365H126.096C125.781 35.2092 125.335 35.8766 124.757 36.5387C124.189 37.1903 123.448 37.7316 122.534 38.1625C121.631 38.5934 120.527 38.8089 119.224 38.8089ZM121.352 33.4645C122.434 33.4645 123.349 33.1702 124.095 32.5816C124.851 31.9826 125.429 31.147 125.828 30.075C126.238 29.003 126.443 27.747 126.443 26.3071C126.443 24.8672 126.243 23.6165 125.844 22.555C125.445 21.4935 124.867 20.6737 124.11 20.0956C123.354 19.5176 122.434 19.2285 121.352 19.2285C120.249 19.2285 119.319 19.5281 118.562 20.1272C117.806 20.7262 117.233 21.5565 116.844 22.6181C116.455 23.6796 116.261 24.9093 116.261 26.3071C116.261 27.7155 116.455 28.9609 116.844 30.0435C117.243 31.1155 117.816 31.9563 118.562 32.5659C119.319 33.165 120.249 33.4645 121.352 33.4645Z" fill="#0D2A22"/>
</svg>
