<svg width="193" height="12" viewBox="0 0 193 12" fill="none" xmlns="http://www.w3.org/2000/svg">
<path fill-rule="evenodd" clip-rule="evenodd" d="M154.984 0.575151C147.794 0.818292 128.053 1.5169 121.745 1.75661C111.06 2.16071 93.2541 2.53741 64.4263 2.96548C17.7583 3.69147 3.34437 4.47225 0.972295 6.48587C-0.790556 7.96526 1.48215 8.09881 15.4553 7.42761C30.31 6.70161 37.8409 6.40712 54.4238 5.92083C80.6074 5.14005 112.589 3.93118 125.988 3.23258C155.088 1.70182 165.263 1.3765 179.642 1.59224C192.09 1.75319 193.378 1.6984 192.393 0.92103C192.086 0.67789 160.718 0.383396 154.984 0.571744V0.575151Z" fill="#113025"/>
<path fill-rule="evenodd" clip-rule="evenodd" d="M135.143 6.7838C132.737 6.83859 125.003 7.05092 117.982 7.26667C110.213 7.50981 97.0217 7.67076 84.2367 7.67076C61.2419 7.67076 44.5553 7.99266 34.0776 8.6125C26.5811 9.06796 24.4121 9.3111 22.511 9.9549C21.3574 10.3316 21.2883 10.4104 21.7636 10.7871C22.0703 11.0302 23.0511 11.3247 23.9326 11.4583C25.6954 11.7254 26.4083 11.7014 38.9902 10.8658C55.8799 9.76314 63.1733 9.52343 87.6588 9.28028C101.295 9.14673 113.639 8.95838 115.13 8.87619C116.621 8.79401 120.963 8.60564 124.795 8.47208C132.698 8.15018 144.601 7.45159 145.755 7.26324C146.196 7.18105 146.433 6.99613 146.33 6.85915C146.196 6.6982 144.666 6.61601 142.834 6.6434C141.037 6.6708 137.576 6.74957 135.135 6.77697L135.143 6.7838Z" fill="#113025"/>
</svg>
